<svg xmlns="http://www.w3.org/2000/svg" viewBox="0 0 32 32">
  <defs>
    <linearGradient id="bg" x1="0%" y1="0%" x2="100%" y2="100%">
      <stop offset="0%" style="stop-color:#0ea5a4"/>
      <stop offset="55%" style="stop-color:#0f766e"/>
      <stop offset="100%" style="stop-color:#155e75"/>
    </linearGradient>
    <radialGradient id="highlight" cx="76%" cy="20%" r="58%">
      <stop offset="0%" style="stop-color:rgba(244,114,182,0.4)"/>
      <stop offset="100%" style="stop-color:transparent"/>
    </radialGradient>
  </defs>
  <rect width="32" height="32" rx="10" ry="10" fill="url(#bg)"/>
  <rect width="32" height="32" rx="10" ry="10" fill="url(#highlight)"/>
  <g transform="translate(8, 8) scale(0.667)">
    <path fill="#f8fafc" d="M15 2H6a2 2 0 0 0-2 2v16a2 2 0 0 0 2 2h12a2 2 0 0 0 2-2V7Z"/>
    <path fill="#f8fafc" d="M14 2v4a2 2 0 0 0 2 2h4"/>
    <path stroke="#f8fafc" stroke-width="1.2" stroke-linecap="round" fill="none" d="M10 9H8"/>
    <path stroke="#f8fafc" stroke-width="1.2" stroke-linecap="round" fill="none" d="M16 13H8"/>
    <path stroke="#f8fafc" stroke-width="1.2" stroke-linecap="round" fill="none" d="M16 17H8"/>
  </g>
</svg>
